<svg xmlns="http://www.w3.org/2000/svg" width="152" height="43" viewBox="0 0 152 43" fill="none"><path d="M22.356 22.95C22.476 23.166 22.572 23.346 22.644 23.49C22.74 23.634 22.812 23.778 22.86 23.922C22.98 24.186 22.944 24.426 22.752 24.642C22.464 25.002 22.2 25.374 21.96 25.758C21.72 26.142 21.456 26.514 21.168 26.874C20.832 27.282 20.496 27.678 20.16 28.062C19.824 28.422 19.476 28.782 19.116 29.142C18.468 29.814 17.796 30.438 17.1 31.014C16.404 31.614 15.672 32.142 14.904 32.598C13.128 33.606 11.352 34.122 9.576 34.146C7.824 34.194 6.048 33.714 4.248 32.706C3.576 32.346 3.024 31.878 2.592 31.302C2.16 30.75 1.764 30.162 1.404 29.538C1.068 28.938 0.804 28.326 0.612 27.702C0.42 27.054 0.252 26.394 0.108 25.722C0.036 25.386 0 25.05 0 24.714C0 24.354 0.012 24.006 0.036 23.67C0.108 22.758 0.24 21.858 0.432 20.97C0.624 20.082 0.852 19.206 1.116 18.342C1.524 17.142 1.98 15.99 2.484 14.886C2.988 13.758 3.552 12.654 4.176 11.574C4.584 10.854 5.016 10.158 5.472 9.486C5.928 8.814 6.396 8.13 6.876 7.434C7.14 7.05 7.416 6.69 7.704 6.354C8.016 5.994 8.304 5.634 8.568 5.274C8.88 4.842 9.228 4.458 9.612 4.122C9.996 3.762 10.392 3.426 10.8 3.114C11.568 2.514 12.372 1.998 13.212 1.566C14.052 1.134 14.928 0.749999 15.84 0.413999C16.752 0.0779987 17.64 -0.0180006 18.504 0.126C19.392 0.27 20.244 0.593999 21.06 1.098C22.26 1.866 23.004 2.946 23.292 4.338C23.412 4.818 23.436 5.298 23.364 5.778C23.316 6.234 23.232 6.69 23.112 7.146C22.872 8.154 22.476 9.054 21.924 9.846C21.396 10.638 20.748 11.358 19.98 12.006C19.572 12.342 19.152 12.654 18.72 12.942C18.312 13.23 17.892 13.518 17.46 13.806C16.836 14.214 16.176 14.502 15.48 14.67C14.808 14.838 14.112 14.97 13.392 15.066C12.912 15.114 12.444 15.09 11.988 14.994C11.556 14.898 11.124 14.79 10.692 14.67C10.284 14.55 9.948 14.346 9.684 14.058C9.42 13.77 9.192 13.458 9 13.122C8.976 13.098 9.036 12.954 9.18 12.69C9.276 12.738 9.372 12.786 9.468 12.834C9.564 12.882 9.648 12.942 9.72 13.014C9.984 13.278 10.272 13.458 10.584 13.554C10.896 13.65 11.232 13.71 11.592 13.734C12.288 13.782 12.96 13.722 13.608 13.554C14.256 13.386 14.892 13.158 15.516 12.87C17.172 12.102 18.576 11.046 19.728 9.702C20.352 9.006 20.868 8.262 21.276 7.47C21.684 6.654 21.936 5.766 22.032 4.806C22.104 3.726 21.756 2.826 20.988 2.106C20.604 1.722 20.124 1.59 19.548 1.71C18.708 1.83 17.892 1.998 17.1 2.214C16.332 2.43 15.564 2.718 14.796 3.078C13.62 3.678 12.576 4.422 11.664 5.31C10.776 6.174 9.912 7.11 9.072 8.118C8.136 9.27 7.284 10.482 6.516 11.754C5.772 13.002 5.064 14.286 4.392 15.606C3.984 16.446 3.612 17.286 3.276 18.126C2.964 18.966 2.688 19.83 2.448 20.718C2.184 21.702 1.992 22.686 1.872 23.67C1.752 24.654 1.728 25.65 1.8 26.658C1.848 27.282 1.98 27.87 2.196 28.422C2.412 28.974 2.676 29.526 2.988 30.078C3.42 30.894 4.092 31.494 5.004 31.878C5.652 32.166 6.312 32.382 6.984 32.526C7.68 32.694 8.4 32.754 9.144 32.706C10.368 32.634 11.496 32.382 12.528 31.95C13.584 31.518 14.58 30.954 15.516 30.258C16.332 29.634 17.124 28.998 17.892 28.35C18.66 27.678 19.368 26.934 20.016 26.118C20.28 25.782 20.532 25.434 20.772 25.074C21.012 24.714 21.264 24.366 21.528 24.03C21.648 23.862 21.768 23.706 21.888 23.562C22.008 23.394 22.164 23.19 22.356 22.95Z" fill="white"></path><path d="M24.8369 22.662C25.1249 23.07 25.3889 23.454 25.6289 23.814C25.8689 24.174 26.1329 24.558 26.4209 24.966C27.0689 25.206 27.7529 25.35 28.4729 25.398C29.2169 25.422 29.9729 25.374 30.7409 25.254C31.4369 25.158 32.1089 25.026 32.7569 24.858C33.4289 24.666 34.1009 24.474 34.7729 24.282C35.5409 24.09 36.2969 23.886 37.0409 23.67C37.7849 23.454 38.5409 23.298 39.3089 23.202C39.3809 23.202 39.4649 23.226 39.5609 23.274C39.7529 23.562 39.8369 23.766 39.8129 23.886C39.7889 24.006 39.6329 24.102 39.3449 24.174C38.4329 24.414 37.5089 24.654 36.5729 24.894C35.6609 25.134 34.7489 25.386 33.8369 25.65C33.3089 25.77 32.7809 25.89 32.2529 26.01C31.7249 26.106 31.1969 26.214 30.6689 26.334C29.9969 26.454 29.3369 26.49 28.6889 26.442C28.0409 26.37 27.4049 26.238 26.7809 26.046C26.7089 26.022 26.5889 26.01 26.4209 26.01C26.2289 26.082 26.1209 26.19 26.0969 26.334C26.0729 26.478 26.0489 26.622 26.0249 26.766C25.9529 27.606 25.6889 28.314 25.2329 28.89C24.7769 29.466 24.2489 29.994 23.6489 30.474C23.3849 30.666 23.0969 30.75 22.7849 30.726C22.4729 30.726 22.1849 30.618 21.9209 30.402C21.3929 29.994 20.9969 29.526 20.7329 28.998C20.4449 28.47 20.3249 27.858 20.3729 27.162C20.4689 26.13 20.7209 25.194 21.1289 24.354C21.5609 23.49 22.1009 22.674 22.7489 21.906C22.9409 21.69 23.2049 21.474 23.5409 21.258C23.7569 21.114 23.9609 21.078 24.1529 21.15C24.3689 21.198 24.5729 21.282 24.7649 21.402C24.9329 21.522 25.0169 21.666 25.0169 21.834C25.0169 22.002 24.9929 22.182 24.9449 22.374C24.8969 22.518 24.8609 22.614 24.8369 22.662ZM23.7929 23.85C23.1689 24.618 22.7489 25.422 22.5329 26.262C22.3169 27.078 22.1729 27.93 22.1009 28.818C22.0769 29.178 22.1489 29.418 22.3169 29.538C22.5089 29.658 22.7609 29.622 23.0729 29.43C23.4569 29.166 23.7689 28.878 24.0089 28.566C24.2489 28.278 24.4409 27.966 24.5849 27.63C24.7289 27.294 24.8609 26.946 24.9809 26.586C25.1729 26.106 25.1969 25.686 25.0529 25.326C24.9329 24.966 24.7049 24.618 24.3689 24.282C24.2729 24.21 24.1769 24.15 24.0809 24.102C24.0089 24.03 23.9129 23.946 23.7929 23.85Z" fill="white"></path><path d="M51.4755 41.958C50.8755 42.246 50.3355 42.198 49.8555 41.814C49.3035 41.406 48.8235 40.938 48.4155 40.41C48.0075 39.906 47.7435 39.294 47.6235 38.574C47.5035 38.022 47.3595 37.482 47.1915 36.954C47.0475 36.45 46.9155 35.934 46.7955 35.406C46.6275 34.782 46.5435 34.17 46.5435 33.57C46.5435 32.97 46.5315 32.358 46.5075 31.734V31.194C46.1715 31.41 45.8835 31.638 45.6435 31.878C45.4275 32.142 45.2235 32.418 45.0315 32.706C44.7435 33.162 44.3955 33.45 43.9875 33.57C43.5795 33.714 43.1595 33.762 42.7275 33.714C42.3915 33.666 42.0675 33.582 41.7555 33.462C41.4435 33.342 41.1555 33.15 40.8915 32.886C40.5075 32.526 40.1355 32.154 39.7755 31.77C39.4395 31.41 39.1755 30.99 38.9835 30.51C38.8875 30.27 38.8155 30.018 38.7675 29.754C38.7195 29.514 38.6715 29.262 38.6235 28.998C38.5995 28.902 38.5875 28.818 38.5875 28.746C38.6115 28.65 38.6115 28.554 38.5875 28.458C38.3715 27.57 38.2755 26.694 38.2995 25.83C38.3235 24.942 38.3715 24.054 38.4435 23.166C38.4915 22.542 38.5395 21.906 38.5875 21.258C38.6355 20.61 38.7075 19.962 38.8035 19.314C38.8755 18.642 38.9715 17.982 39.0915 17.334C39.2115 16.686 39.3315 16.026 39.4515 15.354C39.6435 14.13 39.9195 12.966 40.2795 11.862C40.6395 10.734 41.0115 9.594 41.3955 8.442C41.7795 7.338 42.1755 6.246 42.5835 5.166C43.0155 4.086 43.5795 3.054 44.2755 2.07C44.7075 1.446 45.2235 0.894 45.8235 0.413999C45.9675 0.293999 46.1475 0.209999 46.3635 0.162C46.6035 0.0899992 46.8195 0.0419994 47.0115 0.0179997C47.4915 -0.0299997 47.8275 0.0180002 48.0195 0.162C48.2115 0.305999 48.3915 0.594 48.5595 1.026C48.8475 1.746 48.9675 2.466 48.9195 3.186C48.8955 3.906 48.7995 4.638 48.6315 5.382C48.5355 5.718 48.4395 6.042 48.3435 6.354C48.2715 6.642 48.1755 6.954 48.0555 7.29C47.8635 8.058 47.6595 8.814 47.4435 9.558C47.2515 10.302 47.0235 11.046 46.7595 11.79C46.5435 12.414 46.3035 13.014 46.0395 13.59C45.7755 14.166 45.4995 14.742 45.2115 15.318C44.7075 16.326 44.1915 17.31 43.6635 18.27C43.1355 19.23 42.6075 20.202 42.0795 21.186C41.9595 21.378 41.8515 21.582 41.7555 21.798C41.6595 21.99 41.5395 22.182 41.3955 22.374C41.0595 22.782 40.8675 23.226 40.8195 23.706C40.7715 24.186 40.7475 24.666 40.7475 25.146C40.7715 25.77 40.8075 26.394 40.8555 27.018C40.9035 27.642 40.9515 28.266 40.9995 28.89C41.0475 29.442 41.1435 29.97 41.2875 30.474C41.4555 30.978 41.6355 31.482 41.8275 31.986C41.9475 32.298 42.1515 32.478 42.4395 32.526C42.7275 32.574 43.0035 32.478 43.2675 32.238C43.5795 31.974 43.8795 31.71 44.1675 31.446C44.4555 31.182 44.7435 30.906 45.0315 30.618C45.5115 30.138 45.9315 29.634 46.2915 29.106C46.6515 28.578 46.7595 27.93 46.6155 27.162C46.8075 25.674 47.0235 24.21 47.2635 22.77C47.5035 21.33 47.8155 19.89 48.1995 18.45C48.5115 17.298 48.8235 16.158 49.1355 15.03C49.4475 13.902 49.7955 12.774 50.1795 11.646C50.3475 11.118 50.5635 10.614 50.8275 10.134C51.1155 9.654 51.3795 9.162 51.6195 8.658C51.8835 8.106 52.1955 7.578 52.5555 7.074C52.9395 6.57 53.3355 6.066 53.7435 5.562C54.3435 4.818 55.1115 4.302 56.0475 4.014C57.3675 3.654 58.3395 4.098 58.9635 5.346C59.1555 5.73 59.2635 6.102 59.2875 6.462C59.3355 6.822 59.3355 7.218 59.2875 7.65C59.1915 8.322 59.0355 8.982 58.8195 9.63C58.6035 10.254 58.3875 10.878 58.1715 11.502C58.0995 11.718 58.0035 11.922 57.8835 12.114C57.7635 12.306 57.6435 12.498 57.5235 12.69C57.3795 13.002 57.2355 13.314 57.0915 13.626C56.9715 13.914 56.8275 14.214 56.6595 14.526C56.3235 15.174 55.9755 15.822 55.6155 16.47C55.2555 17.118 54.9075 17.766 54.5715 18.414C54.1395 19.254 53.7195 20.094 53.3115 20.934C52.9035 21.75 52.4715 22.578 52.0155 23.418C51.7515 23.946 51.4515 24.462 51.1155 24.966C50.7795 25.47 50.4435 25.962 50.1075 26.442C49.7955 26.874 49.5315 27.318 49.3155 27.774C49.0995 28.23 49.0035 28.734 49.0275 29.286C49.0515 30.198 49.0395 31.11 48.9915 32.022C48.9675 32.958 48.9795 33.882 49.0275 34.794C49.0515 35.274 49.1235 35.754 49.2435 36.234C49.3635 36.714 49.4835 37.194 49.6035 37.674C49.6035 37.746 49.6155 37.818 49.6395 37.89C49.6635 37.962 49.6875 38.034 49.7115 38.106C49.8315 38.73 49.9755 39.342 50.1435 39.942C50.3355 40.566 50.7075 41.106 51.2595 41.562C51.3075 41.61 51.3435 41.658 51.3675 41.706C51.3915 41.754 51.4275 41.838 51.4755 41.958ZM57.4155 5.022C57.2715 5.142 57.1395 5.25 57.0195 5.346C56.9235 5.442 56.8155 5.55 56.6955 5.67C55.1595 7.374 53.9475 9.27 53.0595 11.358C52.6275 12.366 52.2435 13.374 51.9075 14.382C51.5955 15.39 51.2955 16.422 51.0075 17.478C50.7435 18.39 50.5395 19.302 50.3955 20.214C50.2515 21.126 50.0835 22.038 49.8915 22.95C49.8435 23.19 49.7955 23.43 49.7475 23.67C49.7235 23.91 49.6875 24.15 49.6395 24.39C50.0235 24.126 50.3115 23.79 50.5035 23.382C50.9835 22.47 51.4515 21.558 51.9075 20.646C52.3875 19.734 52.8675 18.822 53.3475 17.91C53.9715 16.71 54.6075 15.534 55.2555 14.382C55.9035 13.23 56.4675 12.03 56.9475 10.782C57.3555 9.63 57.7155 8.394 58.0275 7.074C58.0995 6.738 58.0875 6.402 57.9915 6.066C57.9195 5.706 57.7275 5.358 57.4155 5.022ZM47.6595 1.134C47.1075 1.83 46.6155 2.55 46.1835 3.294C45.7755 4.038 45.4035 4.806 45.0675 5.598C44.7555 6.366 44.4675 7.146 44.2035 7.938C43.9395 8.706 43.6635 9.486 43.3755 10.278C43.0155 11.262 42.6915 12.27 42.4035 13.302C42.1155 14.334 41.8755 15.306 41.6835 16.218C41.4915 17.13 41.3595 17.946 41.2875 18.666C41.2395 19.362 41.2515 19.866 41.3235 20.178C41.8275 19.266 42.3315 18.378 42.8355 17.514C43.3395 16.65 43.7955 15.762 44.2035 14.85C44.6835 13.842 45.1155 12.846 45.4995 11.862C45.9075 10.854 46.3155 9.846 46.7235 8.838C46.8915 8.382 47.0355 7.938 47.1555 7.506C47.2755 7.05 47.3955 6.582 47.5155 6.102C47.6355 5.694 47.7315 5.286 47.8035 4.878C47.8995 4.446 47.9715 4.026 48.0195 3.618C48.0675 2.754 47.9475 1.926 47.6595 1.134Z" fill="white"></path><path d="M62.5019 22.446C62.3579 23.454 61.8659 24.198 61.0259 24.678C60.7619 24.822 60.4859 24.966 60.1979 25.11C59.9339 25.23 59.6579 25.35 59.3699 25.47C59.4419 25.998 59.6339 26.382 59.9459 26.622C60.2819 26.838 60.6539 26.97 61.0619 27.018C61.6139 27.09 62.1659 27.126 62.7179 27.126C63.2939 27.126 63.8579 27.03 64.4099 26.838C65.0339 26.646 65.6339 26.454 66.2099 26.262C66.8099 26.07 67.3979 25.842 67.9739 25.578C68.4539 25.338 68.9219 25.074 69.3779 24.786C69.8339 24.474 70.2899 24.174 70.7459 23.886C70.8659 23.814 70.9739 23.754 71.0699 23.706C71.1659 23.634 71.2739 23.562 71.3939 23.49C71.7779 23.754 71.8379 24.018 71.5739 24.282C70.8779 24.906 70.1939 25.518 69.5219 26.118C68.8499 26.718 68.0579 27.15 67.1459 27.414C66.6659 27.558 66.1979 27.726 65.7419 27.918C65.2859 28.11 64.8179 28.266 64.3379 28.386C63.4259 28.65 62.5259 28.722 61.6379 28.602C60.7739 28.458 59.9459 28.086 59.1539 27.486C58.8899 27.294 58.6499 27.03 58.4339 26.694C58.2419 26.358 58.0859 25.998 57.9659 25.614C57.8699 25.206 57.8339 24.798 57.8579 24.39C57.8579 23.958 57.9539 23.574 58.1459 23.238C58.4099 22.758 58.7459 22.362 59.1539 22.05C59.5859 21.738 60.1139 21.582 60.7379 21.582C60.9059 21.582 61.0499 21.594 61.1699 21.618C61.3139 21.618 61.4459 21.654 61.5659 21.726C61.6859 21.774 61.8179 21.858 61.9619 21.978C62.1059 22.074 62.2859 22.23 62.5019 22.446ZM59.7299 24.138C60.1139 24.09 60.4379 23.97 60.7019 23.778C60.9659 23.562 61.1939 23.322 61.3859 23.058C61.4339 23.01 61.4459 22.938 61.4219 22.842C61.3979 22.722 61.3859 22.602 61.3859 22.482C60.9779 22.674 60.6539 22.926 60.4139 23.238C60.1739 23.55 59.9459 23.85 59.7299 24.138Z" fill="white"></path><path d="M74.4232 24.39C74.5192 24.222 74.6152 24.066 74.7113 23.922C74.8073 23.778 74.9033 23.61 74.9993 23.418C75.2633 22.938 75.1432 22.518 74.6393 22.158C73.9433 22.758 73.3432 23.406 72.8392 24.102C72.3353 24.774 71.9753 25.566 71.7592 26.478C71.5912 27.198 71.6393 27.93 71.9033 28.674C72.1432 29.274 72.5993 29.61 73.2712 29.682C73.7513 29.73 74.2192 29.706 74.6752 29.61C75.1553 29.538 75.6352 29.43 76.1152 29.286C77.1233 28.974 78.0592 28.566 78.9232 28.062C79.7872 27.558 80.6273 26.994 81.4433 26.37C81.9232 25.986 82.3792 25.59 82.8112 25.182C83.2673 24.774 83.7233 24.366 84.1793 23.958C84.2993 23.886 84.4072 23.814 84.5033 23.742C84.5993 23.646 84.7072 23.538 84.8272 23.418C85.0192 23.658 85.1033 23.886 85.0793 24.102C85.0793 24.318 85.0192 24.534 84.8992 24.75C84.7072 25.038 84.4792 25.302 84.2152 25.542C83.2552 26.31 82.2832 27.066 81.2992 27.81C80.3392 28.554 79.2832 29.19 78.1312 29.718C77.5792 29.982 77.0152 30.21 76.4392 30.402C75.8872 30.594 75.2992 30.738 74.6752 30.834C73.1632 31.05 71.9392 30.57 71.0033 29.394C70.5953 28.842 70.3073 28.266 70.1393 27.666C69.9713 27.042 69.9593 26.394 70.1032 25.722C70.2712 24.69 70.7152 23.766 71.4352 22.95C71.7472 22.614 72.0713 22.302 72.4072 22.014C72.7673 21.726 73.1872 21.534 73.6673 21.438C74.0033 21.39 74.3273 21.378 74.6393 21.402C74.9512 21.402 75.2513 21.498 75.5393 21.69C75.6353 21.762 75.7193 21.858 75.7913 21.978C75.8873 22.074 75.9593 22.182 76.0072 22.302C76.1273 22.662 76.1032 23.082 75.9352 23.562C75.7673 24.042 75.5272 24.39 75.2152 24.606C74.8792 24.822 74.6152 24.75 74.4232 24.39Z" fill="white"></path><path d="M106.275 13.23C106.539 13.494 106.539 13.782 106.275 14.094C106.155 14.046 106.023 14.01 105.879 13.986C105.735 13.938 105.603 13.878 105.483 13.806C105.123 13.614 104.751 13.482 104.367 13.41C104.007 13.338 103.623 13.278 103.215 13.23C102.303 13.182 101.391 13.17 100.479 13.194C99.5668 13.194 98.6548 13.254 97.7428 13.374L93.5308 13.914C93.2908 14.25 93.0508 14.574 92.8108 14.886C92.5708 15.198 92.3188 15.522 92.0548 15.858C91.5268 16.554 90.9868 17.238 90.4348 17.91C89.9068 18.558 89.3668 19.23 88.8148 19.926C88.7428 19.998 88.6708 20.082 88.5988 20.178C88.5508 20.274 88.4788 20.346 88.3828 20.394C88.0468 20.658 87.8068 20.958 87.6628 21.294C87.5188 21.63 87.3868 21.99 87.2668 22.374C87.0508 23.07 86.8348 23.778 86.6188 24.498C86.4268 25.194 86.2828 25.914 86.1868 26.658C86.0668 27.33 86.0068 27.93 86.0068 28.458C86.0068 29.346 86.3908 30.042 87.1588 30.546C87.6868 30.882 88.2148 31.122 88.7428 31.266C89.2708 31.41 89.8468 31.422 90.4708 31.302C91.3108 31.158 92.0788 30.894 92.7748 30.51C93.4948 30.15 94.1788 29.73 94.8268 29.25C95.6188 28.65 96.3868 28.038 97.1308 27.414C97.8988 26.766 98.6548 26.094 99.3988 25.398C99.8068 25.014 100.227 24.642 100.659 24.282C101.091 23.922 101.535 23.574 101.991 23.238C102.087 23.19 102.171 23.166 102.243 23.166C102.579 23.358 102.639 23.598 102.423 23.886C102.255 24.126 102.075 24.354 101.883 24.57C101.715 24.786 101.535 24.99 101.343 25.182C99.6148 26.766 97.8988 28.302 96.1948 29.79C94.7788 30.99 93.1948 31.854 91.4428 32.382C90.8188 32.574 90.2188 32.646 89.6428 32.598C89.0908 32.55 88.5388 32.406 87.9868 32.166C86.7388 31.614 85.8028 30.774 85.1788 29.646C84.5548 28.542 84.3868 27.258 84.6748 25.794C84.9148 24.618 85.1788 23.466 85.4668 22.338C85.7788 21.186 86.1388 20.034 86.5468 18.882C86.8108 18.186 87.0868 17.514 87.3748 16.866C87.6628 16.194 87.9628 15.51 88.2748 14.814V14.778C87.6988 14.898 87.1108 15.018 86.5108 15.138C85.9348 15.234 85.3588 15.33 84.7828 15.426C84.2548 15.522 83.7388 15.618 83.2348 15.714C82.7308 15.786 82.2148 15.834 81.6868 15.858C80.8228 15.906 79.9588 15.942 79.0948 15.966C78.2308 15.966 77.3668 15.942 76.5028 15.894C75.6628 15.846 74.9308 15.618 74.3068 15.21C73.6588 14.778 73.1188 14.202 72.6868 13.482C72.5668 13.29 72.4708 13.098 72.3988 12.906C72.3268 12.714 72.3748 12.51 72.5428 12.294C72.7348 12.246 72.8908 12.27 73.0108 12.366C73.1068 12.462 73.1788 12.582 73.2268 12.726C73.4188 13.278 73.7308 13.662 74.1628 13.878C74.5948 14.094 75.0628 14.238 75.5668 14.31C76.9348 14.526 78.2788 14.622 79.5988 14.598C80.9188 14.574 82.2508 14.43 83.5948 14.166C84.5068 13.974 85.4068 13.794 86.2948 13.626C87.2068 13.434 88.1188 13.242 89.0308 13.05C89.2948 12.498 89.5588 11.958 89.8228 11.43C90.1108 10.878 90.4108 10.338 90.7228 9.81C90.9148 9.498 91.1068 9.186 91.2988 8.874C91.5148 8.562 91.7308 8.25 91.9468 7.938C92.1388 7.626 92.3308 7.326 92.5228 7.038C92.7388 6.726 92.9548 6.414 93.1708 6.102C93.4348 5.718 93.6988 5.346 93.9628 4.986C94.2508 4.626 94.5268 4.266 94.7908 3.906C94.9588 3.666 95.1508 3.498 95.3668 3.402C95.6068 3.306 95.8588 3.234 96.1228 3.186C96.4348 3.138 96.6988 3.198 96.9148 3.366C97.1308 3.534 97.2628 3.774 97.3108 4.086C97.4548 5.022 97.4308 5.922 97.2388 6.786C97.0708 7.65 96.7828 8.514 96.3748 9.378C96.1348 9.858 95.8828 10.326 95.6188 10.782C95.3548 11.238 95.0788 11.694 94.7908 12.15L96.9508 11.826C97.8628 11.706 98.7748 11.634 99.6868 11.61C100.599 11.586 101.511 11.598 102.423 11.646C102.903 11.67 103.371 11.73 103.827 11.826C104.307 11.898 104.763 12.066 105.195 12.33C105.555 12.522 105.915 12.822 106.275 13.23ZM92.8108 9.99C92.5948 10.35 92.3668 10.71 92.1268 11.07C91.8868 11.43 91.6708 11.814 91.4788 12.222L91.2628 12.654C91.6228 12.606 91.9828 12.558 92.3428 12.51C92.7268 12.438 93.0988 12.378 93.4588 12.33C93.5548 12.21 93.6388 12.09 93.7108 11.97C93.7828 11.85 93.8668 11.73 93.9628 11.61C94.4428 10.962 94.8508 10.29 95.1868 9.594C95.5468 8.874 95.8828 8.13 96.1948 7.362C96.3628 6.978 96.4828 6.594 96.5548 6.21C96.6268 5.802 96.6028 5.358 96.4828 4.878C96.3628 4.926 96.2428 4.974 96.1228 5.022C96.0268 5.07 95.9548 5.13 95.9068 5.202C95.7148 5.418 95.5108 5.646 95.2948 5.886C95.0788 6.126 94.9108 6.378 94.7908 6.642C94.5268 7.242 94.2148 7.818 93.8548 8.37C93.4948 8.898 93.1468 9.438 92.8108 9.99ZM89.7148 17.37C90.1228 16.818 90.5308 16.278 90.9388 15.75C91.3468 15.198 91.7548 14.646 92.1628 14.094C91.9468 14.142 91.7308 14.178 91.5148 14.202C91.3228 14.226 91.1188 14.262 90.9028 14.31C90.8308 14.31 90.7588 14.322 90.6868 14.346C90.6148 14.346 90.5308 14.358 90.4348 14.382L89.4628 16.542C89.3428 16.806 89.2108 17.058 89.0668 17.298C88.9228 17.514 88.8268 17.79 88.7788 18.126C89.0428 18.078 89.2348 17.982 89.3548 17.838C89.4748 17.67 89.5948 17.514 89.7148 17.37Z" fill="white"></path><path d="M111.811 22.734C111.859 22.83 111.895 22.902 111.919 22.95C111.943 22.998 111.955 23.046 111.955 23.094C111.979 23.214 111.979 23.322 111.955 23.418C111.955 23.514 111.955 23.622 111.955 23.742C111.499 24.078 111.055 24.426 110.623 24.786C110.191 25.146 109.735 25.482 109.255 25.794C108.703 26.13 108.139 26.43 107.563 26.694C107.011 26.958 106.459 27.234 105.907 27.522C105.715 27.642 105.511 27.738 105.295 27.81C105.103 27.882 104.911 27.966 104.719 28.062C104.167 28.326 103.603 28.41 103.027 28.314C102.451 28.218 101.947 27.954 101.515 27.522C101.467 27.474 101.431 27.438 101.407 27.414C101.407 27.39 101.383 27.354 101.335 27.306C100.783 26.802 100.459 26.25 100.363 25.65C100.291 25.05 100.375 24.414 100.615 23.742C100.735 23.358 100.867 22.986 101.011 22.626C101.179 22.266 101.335 21.906 101.479 21.546C101.527 21.402 101.599 21.282 101.695 21.186C101.791 21.066 101.935 21.018 102.127 21.042C102.367 21.066 102.571 21.15 102.739 21.294C102.907 21.438 103.003 21.618 103.027 21.834C103.027 22.05 103.015 22.278 102.991 22.518C102.967 22.734 102.931 22.938 102.883 23.13C102.715 23.85 102.475 24.594 102.163 25.362C102.019 25.722 101.947 26.022 101.947 26.262C101.971 26.478 102.055 26.658 102.199 26.802C102.343 26.922 102.523 26.994 102.739 27.018C102.979 27.042 103.231 27.042 103.495 27.018C103.903 26.97 104.311 26.886 104.719 26.766C105.151 26.622 105.571 26.466 105.979 26.298C106.747 26.01 107.467 25.662 108.139 25.254C108.811 24.822 109.471 24.354 110.119 23.85C110.383 23.658 110.647 23.478 110.911 23.31C111.175 23.118 111.475 22.926 111.811 22.734ZM104.719 17.118C104.671 17.262 104.635 17.406 104.611 17.55C104.587 17.67 104.551 17.79 104.503 17.91C104.407 18.102 104.311 18.294 104.215 18.486C104.143 18.678 104.047 18.87 103.927 19.062C103.807 19.35 103.615 19.482 103.351 19.458C102.919 19.41 102.679 19.194 102.631 18.81C102.583 18.69 102.583 18.57 102.631 18.45C102.823 18.066 103.003 17.694 103.171 17.334C103.363 16.974 103.555 16.614 103.747 16.254C103.795 16.134 103.891 16.086 104.035 16.11C104.203 16.134 104.311 16.206 104.359 16.326C104.431 16.446 104.491 16.578 104.539 16.722C104.611 16.866 104.671 16.998 104.719 17.118Z" fill="white"></path><path d="M113.606 22.662C113.894 23.07 114.158 23.454 114.398 23.814C114.638 24.174 114.902 24.558 115.19 24.966C115.838 25.206 116.522 25.35 117.242 25.398C117.986 25.422 118.742 25.374 119.51 25.254C120.206 25.158 120.878 25.026 121.526 24.858C122.198 24.666 122.87 24.474 123.542 24.282C124.31 24.09 125.066 23.886 125.81 23.67C126.554 23.454 127.31 23.298 128.078 23.202C128.15 23.202 128.234 23.226 128.33 23.274C128.522 23.562 128.606 23.766 128.582 23.886C128.558 24.006 128.402 24.102 128.114 24.174C127.202 24.414 126.278 24.654 125.342 24.894C124.43 25.134 123.518 25.386 122.606 25.65C122.078 25.77 121.55 25.89 121.022 26.01C120.494 26.106 119.966 26.214 119.438 26.334C118.766 26.454 118.106 26.49 117.458 26.442C116.81 26.37 116.174 26.238 115.55 26.046C115.478 26.022 115.358 26.01 115.19 26.01C114.998 26.082 114.89 26.19 114.866 26.334C114.842 26.478 114.818 26.622 114.794 26.766C114.722 27.606 114.458 28.314 114.002 28.89C113.546 29.466 113.018 29.994 112.418 30.474C112.154 30.666 111.866 30.75 111.554 30.726C111.242 30.726 110.954 30.618 110.69 30.402C110.162 29.994 109.766 29.526 109.502 28.998C109.214 28.47 109.094 27.858 109.142 27.162C109.238 26.13 109.49 25.194 109.898 24.354C110.33 23.49 110.87 22.674 111.518 21.906C111.71 21.69 111.974 21.474 112.31 21.258C112.526 21.114 112.73 21.078 112.922 21.15C113.138 21.198 113.342 21.282 113.534 21.402C113.702 21.522 113.786 21.666 113.786 21.834C113.786 22.002 113.762 22.182 113.714 22.374C113.666 22.518 113.63 22.614 113.606 22.662ZM112.562 23.85C111.938 24.618 111.518 25.422 111.302 26.262C111.086 27.078 110.942 27.93 110.87 28.818C110.846 29.178 110.918 29.418 111.086 29.538C111.278 29.658 111.53 29.622 111.842 29.43C112.226 29.166 112.538 28.878 112.778 28.566C113.018 28.278 113.21 27.966 113.354 27.63C113.498 27.294 113.63 26.946 113.75 26.586C113.942 26.106 113.966 25.686 113.822 25.326C113.702 24.966 113.474 24.618 113.138 24.282C113.042 24.21 112.946 24.15 112.85 24.102C112.778 24.03 112.682 23.946 112.562 23.85Z" fill="white"></path><path d="M151.225 23.094C151.297 23.334 151.333 23.466 151.333 23.49C151.141 23.754 150.949 24.006 150.757 24.246C150.589 24.486 150.337 24.666 150.001 24.786C149.641 24.93 149.281 25.086 148.921 25.254C148.561 25.422 148.213 25.602 147.877 25.794C146.797 26.322 145.705 26.778 144.601 27.162C143.521 27.546 142.405 27.846 141.253 28.062C140.797 28.158 140.341 28.218 139.885 28.242C139.429 28.242 138.973 28.218 138.517 28.17C136.645 28.026 135.397 27.042 134.773 25.218C134.677 24.906 134.629 24.522 134.629 24.066V20.574C134.485 20.622 134.353 20.646 134.233 20.646C134.137 20.646 134.053 20.67 133.981 20.718C133.837 20.838 133.693 20.97 133.549 21.114C133.405 21.234 133.273 21.378 133.153 21.546C132.697 22.314 132.181 23.046 131.605 23.742C131.053 24.414 130.573 25.158 130.165 25.974C129.997 26.31 129.805 26.658 129.589 27.018C129.397 27.354 129.193 27.714 128.977 28.098C128.929 28.098 128.857 28.122 128.761 28.17C128.665 28.194 128.557 28.206 128.437 28.206C127.765 28.158 127.345 28.05 127.177 27.882C127.033 27.69 127.021 27.27 127.141 26.622C127.285 25.734 127.441 24.858 127.609 23.994C127.777 23.13 127.957 22.254 128.149 21.366C128.173 21.294 128.197 21.222 128.221 21.15C128.245 21.078 128.281 20.982 128.329 20.862C128.497 20.862 128.653 20.85 128.797 20.826C128.941 20.802 129.085 20.814 129.229 20.862C129.565 20.934 129.793 21.102 129.913 21.366C130.057 21.606 130.093 21.906 130.021 22.266C129.949 22.602 129.877 22.95 129.805 23.31C129.733 23.646 129.649 24.018 129.553 24.426C129.793 24.306 129.949 24.174 130.021 24.03C130.117 23.886 130.225 23.754 130.345 23.634C130.441 23.514 130.525 23.394 130.597 23.274C130.693 23.154 130.789 23.034 130.885 22.914C131.221 22.41 131.569 21.93 131.929 21.474C132.313 20.994 132.709 20.514 133.117 20.034C133.357 19.77 133.621 19.59 133.909 19.494C134.221 19.398 134.521 19.386 134.809 19.458C135.097 19.53 135.361 19.662 135.601 19.854C135.841 20.046 136.033 20.298 136.177 20.61C136.345 20.946 136.453 21.294 136.501 21.654C136.573 22.014 136.609 22.386 136.609 22.77C136.633 23.154 136.657 23.526 136.681 23.886C136.705 24.246 136.693 24.618 136.645 25.002C136.573 26.226 137.209 26.838 138.553 26.838C139.753 26.838 140.917 26.73 142.045 26.514C143.173 26.274 144.301 25.95 145.429 25.542C146.293 25.206 147.145 24.858 147.985 24.498C148.849 24.114 149.701 23.718 150.541 23.31C150.637 23.262 150.745 23.226 150.865 23.202C150.985 23.178 151.105 23.142 151.225 23.094Z" fill="white"></path></svg>